<?xml version="1.0" encoding="utf-8"?>
<!-- Generator: Adobe Illustrator 25.4.1, SVG Export Plug-In . SVG Version: 6.00 Build 0)  -->
<svg version="1.1" xmlns="http://www.w3.org/2000/svg" xmlns:xlink="http://www.w3.org/1999/xlink" x="0px" y="0px"
	 viewBox="0 0 399.22 123.92" style="enable-background:new 0 0 399.22 123.92;" xml:space="preserve">
<g id="char0">
	<polygon points="62,69.1 69.21,62.53 63.08,55.75 26.48,55.75 19.16,62.42 25.3,69.1 	"/>
	<polygon points="81.48,16.78 78.47,13.45 67.6,23.46 64.91,54.35 70.93,60.91 71.36,61.34 77.61,61.34 	"/>
	<polygon points="64.58,116.24 68.24,112.9 59.09,102.89 22.28,102.89 11.41,112.9 14.53,116.24 	"/>
	<polygon points="70.61,64.04 63.51,70.6 60.82,101.39 69.86,111.39 73.52,108.06 77.39,63.61 71.15,63.61 	"/>
	<polygon points="66.2,21.95 77.07,11.94 73.95,8.6 23.9,8.6 20.24,11.94 29.39,21.95 	"/>
	<polygon points="17.01,61.34 17.55,60.81 24.76,54.24 27.45,23.46 18.41,13.45 14.75,16.78 10.87,61.34 	"/>
	<polygon points="23.35,70.6 17.32,64.04 16.89,63.5 10.65,63.5 6.78,108.06 9.79,111.39 20.66,101.39 	"/>
</g>
<g id="char1">
	<polygon points="117.75,21.95 154.56,21.95 165.44,11.94 162.31,8.6 112.26,8.6 108.6,11.94 	"/>
	<polygon points="153.27,54.35 159.3,60.91 159.73,61.34 165.97,61.34 169.85,16.78 166.84,13.45 155.96,23.46 	"/>
	<polygon points="116.03,23.46 106.99,13.45 103.33,16.78 99.46,61.34 105.59,61.34 106.13,60.81 113.34,54.24 	"/>
	<polygon points="161.88,108.06 165.76,63.61 159.52,63.61 158.98,64.04 151.87,70.6 149.18,101.39 158.22,111.39 	"/>
	<polygon points="150.68,69.1 157.89,62.53 151.75,55.75 115.16,55.75 107.84,62.42 113.97,69.1 	"/>
	<polygon points="153.26,116.24 156.92,112.9 147.77,102.89 110.96,102.89 100.09,112.9 103.21,116.24 	"/>
	<polygon points="112.03,70.6 106,64.04 105.57,63.5 99.33,63.5 95.46,108.06 98.47,111.39 109.34,101.39 	"/>
</g>
<g id="dot">
	<path d="M188.58,115.7c0.86,0.36,1.72,0.54,2.58,0.54c0.86,0,1.72-0.18,2.58-0.54c0.86-0.36,1.58-0.82,2.15-1.4
		c0.57-0.57,1.04-1.29,1.4-2.15c0.36-0.86,0.54-1.72,0.54-2.58s-0.18-1.72-0.54-2.58c-0.36-0.86-0.83-1.58-1.4-2.15
		c-0.57-0.57-1.29-1.04-2.15-1.4c-0.86-0.36-1.72-0.54-2.58-0.54c-0.86,0-1.72,0.18-2.58,0.54c-0.86,0.36-1.58,0.83-2.15,1.4
		c-0.57,0.57-1.04,1.29-1.4,2.15c-0.36,0.86-0.54,1.72-0.54,2.58s0.18,1.72,0.54,2.58c0.36,0.86,0.83,1.58,1.4,2.15
		C187,114.88,187.72,115.34,188.58,115.7z"/>
</g>
<g id="char2">
	<polygon points="274.79,64.04 267.69,70.6 265,101.39 274.04,111.39 277.7,108.06 281.57,63.61 275.33,63.61 	"/>
	<polygon points="266.18,69.1 273.39,62.53 267.26,55.75 230.66,55.75 223.34,62.42 229.48,69.1 	"/>
	<polygon points="270.38,21.95 281.25,11.94 278.13,8.6 228.08,8.6 224.42,11.94 233.57,21.95 	"/>
	<polygon points="221.4,61.34 221.94,60.81 229.16,54.24 231.85,23.46 222.8,13.45 219.14,16.78 215.27,61.34 	"/>
	<polygon points="272.42,112.9 263.27,102.89 226.46,102.89 215.59,112.9 218.71,116.24 268.76,116.24 	"/>
	<polygon points="268.98,54.35 275.01,60.91 275.44,61.34 281.69,61.34 285.56,16.78 282.55,13.45 271.67,23.46 	"/>
	<polygon points="227.74,70.6 221.71,64.04 221.28,63.5 215.04,63.5 211.17,108.06 214.18,111.39 225.05,101.39 	"/>
</g>
<g id="char3">
	<polygon points="374.78,69.1 381.99,62.53 375.86,55.75 339.26,55.75 331.94,62.42 338.08,69.1 	"/>
	<polygon points="383.4,64.04 376.3,70.6 373.6,101.39 382.64,111.39 386.3,108.06 390.18,63.61 383.94,63.61 	"/>
	<polygon points="378.99,21.95 389.86,11.94 386.74,8.6 336.69,8.6 333.03,11.94 342.17,21.95 	"/>
	<polygon points="330.01,61.34 330.55,60.81 337.76,54.24 340.45,23.46 331.41,13.45 327.75,16.78 323.88,61.34 	"/>
	<polygon points="377.59,54.35 383.62,60.91 384.05,61.34 390.29,61.34 394.17,16.78 391.15,13.45 380.28,23.46 	"/>
	<polygon points="336.35,70.6 330.32,64.04 329.89,63.5 323.65,63.5 319.77,108.06 322.79,111.39 333.66,101.39 	"/>
	<polygon points="381.03,112.9 371.88,102.89 335.07,102.89 324.19,112.9 327.32,116.24 377.37,116.24 	"/>
	<path d="M328.14,47.6c0-4.09-2.58-7-6.35-7c-3.77,0-6.46,2.91-6.46,7c0,3.55,2.26,6.78,6.35,6.78
		C325.66,54.39,328.14,51.48,328.14,47.6z"/>
</g>
</svg>
